<svg width="73" height="36" viewBox="0 0 73 36" fill="none" xmlns="http://www.w3.org/2000/svg">
<path d="M2.75 7.05L0 0H14.4C17.4 0 19.8833 0.416666 21.85 1.25C23.8167 2.05 25.2833 3.41667 26.25 5.35C27.2167 7.28333 27.7 9.91667 27.7 13.25C27.7 17.75 26.65 21.0333 24.55 23.1C22.45 25.1333 19.25 26.1833 14.95 26.25V18.65C15.7167 18.2833 16.2833 17.6667 16.65 16.8C17.05 15.9 17.25 14.6833 17.25 13.15C17.25 11.45 17.1 10.1667 16.8 9.3C16.5333 8.43333 16.05 7.85 15.35 7.55C14.6833 7.21667 13.7333 7.05 12.5 7.05H2.75ZM2.75 9.55H12.5V36H2.75V9.55Z" fill="#3D87C7"/>
<path d="M38.9668 25H29.2168V0H38.9668V25ZM29.2168 27.5H50.0168L48.4668 36H29.2168V27.5Z" fill="#3D87C7"/>
<path d="M61.4578 0L57.2078 8H49.0078V0H61.4578ZM56.3078 36H48.5078V29.95L64.2078 0H72.0578V6.05L56.3078 36ZM59.1078 36L63.3578 28H72.3078V36H59.1078Z" fill="#3D87C7"/>
</svg>
